<?xml version="1.0" standalone="no"?>
<!DOCTYPE svg PUBLIC "-//W3C//DTD SVG 20010904//EN"
 "http://www.w3.org/TR/2001/REC-SVG-20010904/DTD/svg10.dtd">

<svg version="1.0" xmlns="http://www.w3.org/2000/svg"
width="320.000000pt" height="151.000000pt" viewBox="0 0 320.000000 151.000000"
 preserveAspectRatio="xMidYMid meet">

<g transform="translate(0.000000,151.000000) scale(0.100000,-0.100000)"
fill="#000000" stroke="none">
<path d="M1300 1400 c-177 -14 -401 -49 -553 -86 -328 -81 -545 -204 -622
-353 -24 -48 -23 -137 4 -190 56 -108 222 -217 443 -290 l98 -33 -29 -42 c-43
-61 -88 -98 -207 -168 -58 -34 -108 -68 -112 -76 -26 -68 270 -48 644 43 129
32 306 90 356 116 11 6 135 12 316 14 365 4 575 28 847 96 277 71 500 190 583
313 29 44 32 55 32 126 0 71 -3 82 -32 126 -62 92 -221 195 -396 258 -154 55
-413 110 -642 136 -129 14 -588 21 -730 10z m710 -125 c271 -32 509 -94 670
-173 97 -47 195 -141 205 -194 13 -71 -1 -108 -68 -173 -129 -126 -392 -215
-797 -271 -96 -14 -198 -18 -435 -18 l-310 -1 -132 -52 c-72 -29 -178 -64
-235 -78 -56 -15 -112 -29 -123 -32 -14 -4 -8 7 22 38 50 53 118 168 107 179
-5 4 -65 24 -134 45 -251 73 -423 182 -450 285 -18 65 0 113 63 175 138 134
465 237 867 274 63 6 131 13 150 15 76 9 472 -4 600 -19z"/>
<path d="M696 1054 c-13 -13 -16 -42 -16 -160 0 -144 0 -144 25 -156 47 -21
55 -1 55 148 0 145 1 147 55 122 25 -11 25 -12 25 -129 0 -94 3 -121 16 -133
8 -9 21 -16 28 -16 30 0 36 25 36 145 l0 120 27 13 c62 28 63 26 63 -127 0
-132 1 -140 20 -146 44 -14 50 7 50 166 0 169 0 169 -87 169 -65 0 -90 -8 -96
-31 -6 -22 -27 -26 -27 -4 0 23 -34 35 -99 35 -41 0 -64 -5 -75 -16z"/>
<path d="M1146 1054 c-13 -13 -16 -42 -16 -160 0 -144 0 -144 25 -156 40 -18
55 3 55 78 l0 64 45 0 45 0 0 -65 c0 -60 2 -66 25 -77 48 -22 55 -2 55 163 0
176 5 169 -129 169 -68 0 -93 -4 -105 -16z m154 -79 l0 -45 -45 0 -45 0 0 45
0 45 45 0 45 0 0 -45z"/>
<path d="M1448 1059 c-15 -8 -18 -25 -18 -112 0 -210 12 -387 27 -387 9 0 13
15 13 53 l0 52 50 -55 49 -55 1 88 c0 71 -3 87 -15 87 -11 0 -15 -12 -15 -51
l0 -51 -44 48 -44 49 29 12 c28 11 28 14 31 100 l3 88 48 -93 c26 -51 54 -95
62 -99 11 -4 15 -22 15 -70 0 -56 -3 -66 -20 -70 -26 -7 -26 -33 -1 -33 33 0
51 38 51 107 0 44 -4 63 -12 63 -7 0 -5 5 5 11 15 9 17 27 17 154 0 117 -3
146 -16 159 -18 19 -20 19 -45 6 -16 -9 -19 -22 -19 -95 0 -47 -4 -85 -8 -85
-4 0 -26 37 -47 82 -53 108 -63 118 -97 97z"/>
<path d="M1900 1062 c-27 -9 -30 -25 -30 -154 l0 -128 -34 0 c-32 0 -35 3 -38
33 -3 29 -6 32 -38 32 -34 0 -35 -1 -38 -46 -2 -31 2 -50 12 -58 13 -11 12
-16 -11 -36 -20 -17 -27 -32 -27 -60 0 -70 83 -111 132 -65 41 38 40 92 -1
130 l-21 20 60 0 c33 0 65 5 72 12 8 8 12 58 12 160 0 130 -2 148 -17 156 -10
5 -25 7 -33 4z m-88 -379 c10 -9 18 -25 18 -36 0 -26 -28 -57 -52 -57 -22 0
-58 34 -58 55 0 20 36 55 57 55 9 0 25 -7 35 -17z"/>
<path d="M2018 1059 c-16 -9 -18 -28 -18 -157 0 -102 4 -152 12 -160 15 -15
191 -16 219 -2 17 10 19 23 19 155 0 179 3 175 -123 175 -51 0 -100 -5 -109
-11z m152 -159 l0 -120 -45 0 -45 0 0 120 0 120 45 0 45 0 0 -120z"/>
<path d="M2318 1059 c-16 -9 -18 -28 -18 -157 0 -102 4 -152 12 -160 13 -13
183 -17 212 -6 14 5 16 29 16 164 0 155 0 158 -22 164 -37 9 -182 6 -200 -5z
m152 -159 l0 -120 -50 0 -50 0 0 120 0 120 50 0 50 0 0 -120z"/>
<path d="M1912 710 c-41 -38 -40 -92 1 -130 48 -46 131 -4 131 65 0 70 -83
111 -132 65z m88 -30 c11 -11 20 -27 20 -35 0 -20 -36 -55 -57 -55 -23 0 -53
30 -53 53 0 26 28 57 52 57 10 0 27 -9 38 -20z"/>
<path d="M1100 640 c0 -63 3 -80 14 -80 10 0 16 13 18 38 l3 37 20 -33 20 -33
27 33 27 33 1 -37 c0 -27 4 -38 15 -38 12 0 15 16 15 80 0 44 -3 80 -7 80 -5
0 -23 -23 -41 -51 l-34 -51 -34 51 c-19 28 -37 51 -39 51 -3 0 -5 -36 -5 -80z"/>
<path d="M1314 648 c-16 -40 -30 -76 -32 -80 -2 -5 3 -8 11 -8 8 0 17 7 21 15
3 9 18 15 35 15 16 0 31 -6 35 -15 3 -8 13 -15 22 -15 8 0 14 3 12 8 -1 4 -16
40 -32 80 -16 39 -32 72 -36 72 -4 0 -20 -33 -36 -72z m50 -13 c4 -10 -1 -15
-14 -15 -13 0 -18 5 -14 15 4 8 10 15 14 15 4 0 10 -7 14 -15z"/>
</g>
</svg>
